<?xml version="1.0" encoding="UTF-8" standalone="no"?>
<svg width="17px" height="17px" viewBox="0 0 17 17" version="1.1" xmlns="http://www.w3.org/2000/svg" xmlns:xlink="http://www.w3.org/1999/xlink">
    <!-- Generator: Sketch 3.7.2 (28276) - http://www.bohemiancoding.com/sketch -->
    <title>Shape</title>
    <desc>Created with Sketch.</desc>
    <defs></defs>
    <g id="Main-Page" stroke="none" stroke-width="1" fill="none" fill-rule="evenodd">
        <g id="Selected-Pedal" transform="translate(-251.000000, -332.000000)" fill="#FFFFFF">
            <g id="Pedals" transform="translate(1.000000, 255.000000)">
                <g id="Selected-pedal" transform="translate(26.000000, 61.000000)">
                    <path d="M240.386709,19.340614 L235.247929,24.4799294 L240.386709,29.6190014 C241.151077,30.3836617 241.151077,31.6223091 240.386709,32.3869693 C240.004792,32.7688856 239.504075,32.9599898 239.003601,32.9599898 C238.502299,32.9599898 238.001533,32.7691778 237.619909,32.3869693 L232.48001,27.2473131 L227.340499,32.3869207 C226.958632,32.7688369 226.457866,32.9599411 225.956954,32.9599411 C225.456188,32.9599411 224.955762,32.7691291 224.573554,32.3869207 C223.809186,31.6226012 223.809186,30.3839051 224.573554,29.6189527 L229.712188,24.4798807 L224.573262,19.340614 C223.808894,18.5762458 223.808894,17.3373063 224.573262,16.5729382 C225.337484,15.8091543 226.575693,15.8091543 227.340207,16.5729382 L232.479961,21.7122536 L237.619325,16.5729382 C238.383985,15.8091543 239.622341,15.8091543 240.386417,16.5729382 C241.151077,17.3373063 241.151077,18.5762458 240.386709,19.340614 L240.386709,19.340614 Z" id="Shape"></path>
                </g>
            </g>
        </g>
    </g>
</svg>