<?xml version="1.0" encoding="UTF-8" standalone="no"?>
<svg width="23px" height="24px" viewBox="0 0 23 24" version="1.1" xmlns="http://www.w3.org/2000/svg" xmlns:xlink="http://www.w3.org/1999/xlink">
    <!-- Generator: Sketch 3.7.2 (28276) - http://www.bohemiancoding.com/sketch -->
    <title>Magnifier</title>
    <desc>Created with Sketch.</desc>
    <defs></defs>
    <g id="Main-Page" stroke="none" stroke-width="1" fill="none" fill-rule="evenodd">
        <g id="Drop-down" transform="translate(-788.000000, -185.000000)" fill="#959CA0">
            <g id="Search-Box" transform="translate(460.000000, 171.000000)">
                <path d="M349.653653,35.4395 L345.363453,30.8015 C345.360696,30.7985 345.357939,30.7985 345.355182,30.7955 C346.571106,29.0375 347.300385,26.8625 347.300385,24.5 C347.300385,18.7115 342.970206,14 337.650192,14 C332.330179,14 328,18.7115 328,24.5 C328,30.2885 332.330179,35 337.650192,35 C339.821486,35 341.820454,34.2065 343.434793,32.885 C343.437551,32.888 343.437551,32.891 343.440308,32.894 L347.704314,37.5605 C347.973141,37.853 348.326062,38 348.678984,38 C349.031905,38 349.384826,37.853 349.653653,37.5605 C350.192685,36.974 350.192685,36.026 349.653653,35.4395 L349.653653,35.4395 Z M337.650192,32 C333.849395,32 330.757198,28.6355 330.757198,24.5 C330.757198,20.3645 333.849395,17 337.650192,17 C341.45099,17 344.543187,20.3645 344.543187,24.5 C344.543187,28.6355 341.45099,32 337.650192,32 L337.650192,32 Z" id="Magnifier"></path>
            </g>
        </g>
    </g>
</svg>